<?xml version="1.0" encoding="UTF-8"?>
<svg id="Layer_1" data-name="Layer 1" xmlns="http://www.w3.org/2000/svg" viewBox="0 0 96 96">
  <defs>
    <style>
      .cls-1 {
        fill: #e30613;
        stroke: #e30613;
        stroke-miterlimit: 2.61;
        stroke-width: .07px;
      }

      .cls-1, .cls-2 {
        fill-rule: evenodd;
      }

      .cls-2 {
        fill: #1d1d1b;
      }
    </style>
  </defs>
  <path class="cls-1" d="M43.91,21.41c.55.47,1.05.22.1,1.46-15.71,20.51-19.58,39.08-10.95,41.26,13.03.33,24.73-28.72,18.31-43.55h3.87c20.41,12.79-8.59,52.83-28.89,43.2-9.36-4.44-14.44-22.12,16.03-41.31C13.76,20.17-5.53,46.78,6.91,55.6c.87.62-.5,1.03-1.28.52C-13.91,35.49,22.67,16.03,43.91,21.41h0Z"/>
  <path class="cls-2" d="M60.8,20.65h19.03v2.26h-4.55c-.73,0-1.26.21-1.6.62-.34.41-.51,1.06-.51,1.94v35.06c0,.84.22,1.45.65,1.8.44.35,1.31.52,2.63.52h5.77c3.07,0,5.58-1.11,7.54-3.32,1.95-2.21,3.38-6.05,4.27-11.52h1.94l-.95,17.1h-34.22v-2.26h3.37c1.15,0,1.95-.24,2.42-.71.46-.47.69-1.22.69-2.27V25.16c0-.75-.2-1.3-.59-1.68-.39-.38-.96-.57-1.72-.57h-4.17v-2.26h0Z"/>
  <path class="cls-2" d="M25.75,71.52l-.83,1.59c-.16.31-.34.68-.55,1.1-.2.42-.41.84-.6,1.25-.1.05-.23.07-.4.07-.13,0-.23-.02-.31-.07-.16-.35-.32-.7-.48-1.05l-1.84-3.74c-.23-.46-.38-.73-.46-.8-.08-.08-.26-.14-.53-.2l-.32-.06s-.06-.1-.06-.15c0-.08.03-.13.1-.17l1.55.03,1.71-.03s.07.08.07.15-.02.12-.06.17l-.34.06c-.19.04-.28.09-.28.17,0,.03.04.14.13.33.09.19.2.42.33.68l1,2.07.35.71.37-.68.42-.86c.11-.22.24-.48.38-.77.21-.46.39-.84.52-1.15.08-.17.11-.28.11-.33,0-.04-.02-.08-.07-.1-.05-.02-.13-.04-.23-.06l-.33-.06s-.07-.09-.07-.15c0-.09.04-.14.11-.17l1.4.03,1.06-.03c.05.02.08.08.08.18,0,.06-.02.1-.06.13l-.3.05c-.29.05-.5.16-.63.32-.23.27-.54.78-.94,1.54h0Z"/>
  <path class="cls-2" d="M29.98,70.66v3.38c0,.43.03.7.09.8.06.1.23.17.5.2l.32.05s.07.08.07.16c0,.08-.03.13-.08.17l-1.71-.03-1.73.03s-.07-.08-.07-.16c0-.08.02-.13.07-.17l.32-.05c.27-.04.43-.11.49-.21.06-.1.1-.37.1-.79v-3.38c0-.43-.03-.7-.09-.8-.06-.1-.23-.17-.5-.2l-.32-.05s-.07-.08-.07-.16c0-.08.02-.13.07-.17l1.73.03,1.72-.03s.07.09.07.17c0,.07-.02.13-.07.16l-.32.05c-.27.04-.43.11-.49.21-.06.1-.1.37-.1.79h0Z"/>
  <path class="cls-2" d="M34.18,74.06v-4.05c0-.12-.01-.19-.04-.22-.03-.03-.1-.05-.23-.05h-.71c-.39,0-.68.09-.89.27-.15.13-.33.39-.52.77-.05.02-.1.03-.17.03-.12,0-.2-.04-.25-.11.1-.27.18-.56.25-.88.04-.23.08-.45.13-.68.05-.03.11-.05.16-.05.07,0,.12.01.16.04.03.09.09.14.19.16.09.02.35.03.77.03h4.23c.39,0,.65-.01.77-.03.12-.02.2-.08.26-.17.05-.02.09-.03.15-.03.08,0,.13.02.17.06-.05.14-.09.37-.13.69-.03.32-.05.62-.05.89-.04.05-.12.07-.25.07-.09,0-.15-.02-.17-.05-.12-.36-.24-.6-.35-.73-.18-.2-.47-.29-.85-.29h-.68c-.14,0-.22.01-.26.04-.03.03-.05.1-.05.22v4.05c0,.43.03.69.09.79.06.09.22.16.49.2l.46.05s.06.08.06.17c0,.08-.02.13-.06.16l-1.82-.03-1.93.03s-.07-.08-.07-.16c0-.08.02-.13.07-.17l.51-.05c.26-.03.42-.1.48-.2.06-.1.1-.36.1-.78h0Z"/>
  <path class="cls-2" d="M42.31,73.31h-1.27c-.14,0-.23,0-.27.02-.03.02-.07.07-.11.16l-.42,1.07c-.03.09-.05.17-.06.22-.01.06-.02.09-.02.11,0,.03.03.06.09.08.06.02.16.05.32.07l.34.05s.06.1.06.17c0,.09-.03.14-.08.16l-1.33-.03c-.17,0-.4,0-.67.01-.27,0-.44.01-.5.01-.06-.02-.09-.08-.09-.17,0-.06.02-.11.06-.16l.31-.03c.16-.02.28-.05.38-.1.13-.07.24-.19.32-.36.06-.11.16-.31.3-.61.14-.29.27-.58.41-.86l1.02-2.24c.11-.23.23-.47.34-.7.08-.19.12-.35.1-.47.22-.04.45-.15.69-.31.08-.06.17-.13.3-.24.08,0,.13.01.17.04.04.02.07.08.1.17.03.09.09.24.16.44.08.21.19.47.34.79l1.55,3.6c.09.21.17.37.24.48.12.19.3.3.52.34l.43.06s.06.09.06.17c0,.07-.02.13-.07.16l-1.75-.03-1.54.03c-.07-.03-.1-.09-.1-.17,0-.06.03-.11.08-.15l.36-.05c.13-.02.21-.04.25-.06.04-.02.06-.06.06-.09,0-.06-.07-.26-.22-.62l-.31-.79c-.03-.07-.08-.12-.14-.14s-.2-.03-.41-.03h0ZM41.26,72.82h.99c.18,0,.27-.04.27-.11,0-.04-.02-.09-.05-.16l-.3-.74c-.12-.29-.2-.48-.23-.56-.08-.19-.14-.32-.18-.4-.14.24-.29.58-.47,1.01l-.28.69c-.04.08-.06.14-.06.17,0,.07.1.1.3.1h0Z"/>
  <path class="cls-2" d="M48.64,70.1v1.61c0,.13.01.21.04.24.03.02.12.04.28.04h.79c.3,0,.49-.03.6-.09s.18-.2.24-.42l.06-.23s.12-.06.22-.06c.11,0,.17.02.2.06l-.03.97.03.97s-.11.06-.23.06c-.09,0-.16-.02-.19-.06l-.06-.23c-.06-.22-.14-.36-.24-.42-.1-.06-.3-.09-.6-.09h-.79c-.15,0-.24.01-.27.04-.03.02-.05.11-.05.25v1.09c0,.24.01.42.04.56.03.13.08.24.15.33.08.09.19.15.34.18.15.03.43.05.84.05.55,0,.93-.05,1.14-.14.28-.13.57-.44.86-.93.04-.04.09-.06.17-.06.14,0,.23.03.25.1,0,.23-.05.48-.15.77s-.21.52-.32.7c-.54,0-1.02,0-1.44,0-.42,0-.82-.01-1.18-.02h-1.48l-1.96.03s-.07-.09-.07-.17c0-.07.02-.13.07-.16l.53-.06c.26-.03.42-.1.48-.2.06-.1.1-.36.1-.77v-3.42c0-.42-.03-.67-.09-.77s-.22-.17-.49-.2l-.28-.05s-.07-.08-.07-.15c0-.09.03-.14.09-.17l1.64.03h3.37c.3,0,.49,0,.57-.03l.15,1.42c-.02.06-.1.09-.23.09-.08,0-.15-.02-.19-.06-.14-.36-.28-.6-.43-.73-.12-.1-.27-.17-.43-.22-.17-.05-.39-.07-.68-.07h-.91c-.19,0-.3.02-.33.05-.03.03-.05.13-.05.31h0Z"/>
  <path class="cls-2" d="M58.35,70.65v3.21c0,.45.06.74.19.87.08.09.2.15.35.18.15.03.43.05.83.05.56,0,.94-.05,1.15-.15.27-.13.56-.44.88-.95.04-.04.09-.06.16-.06.13,0,.22.04.27.11-.03.23-.1.5-.2.81-.11.32-.2.54-.28.67-.54,0-1.02,0-1.44,0-.42,0-.82-.01-1.18-.02h-1.52l-1.8.03s-.06-.05-.07-.08c-.01-.04-.02-.07-.02-.11,0-.06.03-.1.08-.13l.42-.05c.25-.03.41-.1.47-.2.06-.1.09-.36.09-.78v-3.42c0-.43-.03-.69-.09-.79-.06-.1-.22-.17-.49-.2l-.33-.04c-.05-.02-.08-.08-.08-.16s.03-.13.1-.17l1.71.03,1.68-.03s.07.09.07.17c0,.07-.02.13-.07.16l-.3.04c-.26.04-.42.11-.48.21-.06.1-.1.36-.1.78h0Z"/>
  <path class="cls-2" d="M65,70.66v3.38c0,.43.03.7.09.8.06.1.23.17.5.2l.32.05s.07.08.07.16c0,.08-.03.13-.08.17l-1.71-.03-1.73.03s-.07-.08-.07-.16c0-.08.02-.13.07-.17l.32-.05c.27-.04.43-.11.49-.21.06-.1.1-.37.1-.79v-3.38c0-.43-.03-.7-.09-.8-.06-.1-.23-.17-.5-.2l-.32-.05s-.07-.08-.07-.16c0-.08.02-.13.07-.17l1.73.03,1.72-.03s.07.09.07.17c0,.07-.02.13-.07.16l-.32.05c-.27.04-.43.11-.49.21-.06.1-.1.37-.1.79h0Z"/>
  <path class="cls-2" d="M69.2,74.06v-4.05c0-.12-.01-.19-.04-.22-.03-.03-.1-.05-.23-.05h-.71c-.39,0-.68.09-.89.27-.15.13-.33.39-.52.77-.05.02-.1.03-.17.03-.12,0-.2-.04-.25-.11.1-.27.18-.56.25-.88.04-.23.08-.45.13-.68.05-.03.11-.05.16-.05.07,0,.12.01.16.04.03.09.09.14.19.16.09.02.35.03.77.03h4.23c.39,0,.65-.01.77-.03.12-.02.2-.08.26-.17.05-.02.09-.03.15-.03.08,0,.13.02.17.06-.05.14-.09.37-.13.69-.03.32-.05.62-.05.89-.04.05-.12.07-.25.07-.09,0-.15-.02-.17-.05-.12-.36-.24-.6-.35-.73-.18-.2-.47-.29-.85-.29h-.68c-.14,0-.22.01-.26.04-.03.03-.05.1-.05.22v4.05c0,.43.03.69.09.79.06.09.22.16.49.2l.46.05s.06.08.06.17c0,.08-.02.13-.06.16l-1.82-.03-1.93.03s-.07-.08-.07-.16c0-.08.02-.13.07-.17l.51-.05c.26-.03.42-.1.48-.2.06-.1.1-.36.1-.78h0Z"/>
  <path class="cls-2" d="M76.56,70.1v1.61c0,.13.01.21.04.24.03.02.12.04.28.04h.79c.3,0,.49-.03.6-.09.1-.06.18-.2.24-.42l.06-.23s.12-.06.22-.06c.11,0,.17.02.2.06l-.03.97.03.97s-.11.06-.23.06c-.09,0-.16-.02-.19-.06l-.06-.23c-.06-.22-.14-.36-.24-.42-.1-.06-.3-.09-.6-.09h-.79c-.15,0-.24.01-.27.04-.03.02-.05.11-.05.25v1.09c0,.24.01.42.04.56.03.13.08.24.15.33.08.09.19.15.34.18.15.03.43.05.84.05.55,0,.93-.05,1.14-.14.28-.13.57-.44.86-.93.04-.04.09-.06.17-.06.14,0,.23.03.25.1,0,.23-.05.48-.15.77s-.21.52-.32.7c-.54,0-1.02,0-1.44,0-.42,0-.82-.01-1.18-.02h-1.48l-1.96.03s-.07-.09-.07-.17c0-.07.02-.13.07-.16l.53-.06c.26-.03.42-.1.48-.2.06-.1.1-.36.1-.77v-3.42c0-.42-.03-.67-.09-.77-.06-.1-.22-.17-.49-.2l-.28-.05s-.07-.08-.07-.15c0-.09.03-.14.09-.17l1.64.03h3.37c.3,0,.49,0,.57-.03l.15,1.42c-.02.06-.1.09-.23.09-.08,0-.15-.02-.19-.06-.14-.36-.28-.6-.43-.73-.12-.1-.27-.17-.43-.22-.17-.05-.39-.07-.68-.07h-.91c-.19,0-.3.02-.33.05-.03.03-.05.13-.05.31h0Z"/>
  <path class="cls-2" d="M81.68,74.06v-3.26c0-.47-.02-.76-.07-.88-.05-.11-.19-.18-.43-.2h-.31c-.05-.02-.08-.07-.08-.16,0-.08.03-.14.1-.17.35,0,.68,0,.98-.02,1.05-.04,1.66-.07,1.84-.07.51,0,.95.03,1.33.08.38.06.68.14.9.25.67.32,1,.77,1,1.36,0,.37-.13.67-.4.92-.17.16-.44.31-.81.46-.06.02-.09.06-.09.1,0,.03.01.06.03.1.76,1.24,1.35,2.01,1.76,2.3.14.09.27.16.41.2.14.04.25.06.35.06.05.02.08.07.08.14,0,.04-.01.07-.03.1-.08.03-.21.05-.38.06s-.34.02-.52.02c-.52,0-.96-.08-1.3-.23-.35-.15-.65-.4-.9-.73-.16-.21-.32-.45-.48-.71-.13-.21-.27-.45-.41-.72-.07-.12-.15-.2-.24-.25-.09-.05-.21-.07-.36-.07-.2,0-.32.01-.36.03-.04.02-.06.08-.06.17v1.13c0,.42.03.68.09.78.06.1.22.17.49.2l.31.05s.06.08.06.16c0,.09-.02.14-.06.17l-1.67-.03-1.66.03s-.07-.09-.07-.17c0-.07.02-.13.07-.16l.31-.05c.26-.04.42-.11.48-.21.06-.1.1-.36.1-.77h0ZM83.24,70.19v1.79c0,.17.03.26.1.3.06.03.27.05.61.05.36,0,.65-.09.86-.26.11-.09.21-.22.29-.38.08-.16.12-.37.12-.61,0-.42-.14-.75-.41-.99-.27-.24-.63-.37-1.08-.37-.24,0-.38.02-.42.06s-.07.18-.07.4h0Z"/>
  <path class="cls-2" d="M91.63,73.31h-1.27c-.14,0-.23,0-.27.02-.03.02-.07.07-.11.16l-.42,1.07c-.03.09-.05.17-.06.22-.01.06-.02.09-.02.11,0,.03.03.06.09.08.06.02.16.05.32.07l.34.05s.06.1.06.17c0,.09-.03.14-.08.16l-1.33-.03c-.17,0-.4,0-.67.01-.27,0-.44.01-.5.01-.06-.02-.09-.08-.09-.17,0-.06.02-.11.06-.16l.31-.03c.16-.02.28-.05.38-.1.13-.07.24-.19.32-.36.06-.11.16-.31.3-.61.14-.29.27-.58.41-.86l1.02-2.24c.11-.23.23-.47.34-.7.08-.19.12-.35.1-.47.22-.04.45-.15.69-.31.08-.06.17-.13.3-.24.08,0,.13.01.17.04.04.02.07.08.1.17.03.09.09.24.16.44.08.21.19.47.34.79l1.55,3.6c.09.21.17.37.24.48.12.19.3.3.52.34l.43.06s.06.09.06.17c0,.07-.02.13-.07.16l-1.75-.03-1.54.03c-.07-.03-.1-.09-.1-.17,0-.06.03-.11.08-.15l.36-.05c.13-.02.21-.04.25-.06.04-.02.06-.06.06-.09,0-.06-.07-.26-.22-.62l-.31-.79c-.03-.07-.08-.12-.14-.14s-.2-.03-.41-.03h0ZM90.58,72.82h.99c.18,0,.27-.04.27-.11,0-.04-.02-.09-.05-.16l-.3-.74c-.12-.29-.2-.48-.23-.56-.08-.19-.14-.32-.18-.4-.14.24-.29.58-.47,1.01l-.28.69c-.04.08-.06.14-.06.17,0,.07.1.1.3.1h0Z"/>
</svg>